<?xml version="1.0" standalone="no"?>
<!DOCTYPE svg PUBLIC "-//W3C//DTD SVG 20010904//EN"
 "http://www.w3.org/TR/2001/REC-SVG-20010904/DTD/svg10.dtd">
<svg version="1.0" xmlns="http://www.w3.org/2000/svg"
 width="100.000000pt" height="100.000000pt" viewBox="0 0 100.000000 100.000000"
 preserveAspectRatio="xMidYMid meet">
<metadata>
Created by potrace 1.16, written by Peter Selinger 2001-2019
</metadata>
<g transform="translate(0.000000,100.000000) scale(0.100000,-0.100000)"
fill="#000000" stroke="none">
<path d="M480 811 c0 -17 -4 -31 -10 -31 -5 0 -10 -5 -10 -11 0 -5 4 -8 8 -5
5 3 5 -16 1 -42 -4 -26 -8 -52 -8 -58 -1 -8 -29 -13 -76 -16 -60 -3 -77 -7
-89 -23 -22 -30 3 -39 89 -31 l72 7 6 -28 c2 -15 6 -100 7 -188 0 -93 5 -162
11 -166 6 -3 9 -10 8 -15 -1 -5 -1 -17 0 -28 1 -15 4 -16 15 -7 12 10 14 8 10
-11 -2 -13 2 -5 11 16 13 33 13 54 4 130 -10 85 -8 271 4 282 3 3 41 5 85 5
78 0 80 0 80 24 0 15 -6 25 -14 25 -8 0 -14 3 -14 8 0 4 -30 8 -67 10 -37 1
-69 5 -71 7 -3 2 -5 39 -6 82 0 44 -5 78 -11 78 -5 0 -16 4 -22 8 -10 6 -13 0
-13 -22z"/>
</g>
</svg>
